<?xml version="1.0" encoding="UTF-8"?>
<svg version="1.1" viewBox="0 0 1800 1800" width="450" height="450" xmlns="http://www.w3.org/2000/svg">
<path transform="translate(857)" d="m0 0h39l1 1h10l12 5 17 9 5 4 13 10 14 15 4-1 12-4 6-1h26l27 4 16 6 11 6 14 12 13 15 10 15 9 17 5 13 1 6h9l20-2h10l18 2 17 4 17 5 9 5 12 11 10 12 9 13 8 14 9 20 3 7 13-1 5-1h19l18 1 23 6 16 8 11 7 10 8 9 11 9 14 5 10 9 22 1 6 18-2h33l20 4 11 4 12 6 10 7 10 9 10 11 10 15 15 29 3 6 6 1 15-2h24l18 3 16 5 16 9 10 8 9 9 11 14 6 9 7 15 4 13 2 17v11l26 12 10 8 9 7 9 11 9 14 10 21 3 14v21l-3 23-5 13-12 20-6 8-3 5 1 7 9 10 11 17 6 16 5 17 2 13v29l-6 23-7 17-8 14-7 11-4 5-4 3 2 4 10 13 10 16 6 14 6 20 3 23v10l-5 25-6 17-5 12-7 11-7 8-5 7 1 7 8 10 10 17 9 21 6 21 2 17-4 23-4 16-6 12-12 16-14 14-15 10-6 2 1 8 2 7 1 13-1 16-8 29-8 13-9 12-9 10-15 10-19 10-8 3-6 1h-15l-16-1h-21l-3 10-6 16-6 10-7 11-11 12-5 6-12 9-12 7-18 7-18 4h-31l-16-1-5-1-1 7-8 18-9 15-7 10-12 13-8 8-14 9-16 7-21 5-10 1h-24l-18-3-6 16-7 16-7 11-6 9-7 8-4 5-12 9-10 6-15 6-19 5-19 2h-25l-5-1h-7l-4 9-8 19-12 20-4 5h-2l-2 4-7 8-16 14-11 5-13 4-27 4h-41l-4-1-1 6-8 15-14 15-5 5-9 8-17 9-22 7-12 1h-12l-5-2h-7l-7-3-9-3-16-8-9-6-10-8-9-10-4-6-6 1-14 4h-22l-20-1-20-5-23-11-11-8-11-11-9-12-11-17-5-12-7-15v-2l-17 3-7 1h-11l-18-1-16-4-25-12-14-11-10-10-11-14-10-18-7-16-4-7-17 2h-33l-12-3-10-3-11-4-13-8-8-7-18-18-10-15-7-11-7-18-3-6-13 2-14 1h-17l-5-2-8 1-7-3-14-4-16-8-13-10-9-8-8-10-9-15-9-19-7-15-2-1h-53l-19-3-10-4-16-9-10-9-11-11-7-11-4-9-6-20-4-18-2-17-10-3-12-4-10-7-8-6-11-11-11-15-9-18-5-20-1-10v-18l1-11 4-13 8-16 9-16 6-10-2-5-12-19-8-16-6-15-3-9-3-15v-25l4-18 7-20 8-16 6-9 6-8 4-6-1-4-10-14-8-13-8-17-5-16-3-14v-32l7-24 5-13 8-16 4-6 7-8 4-7-1-4-9-11-10-15-5-12-6-18-4-14v-30l6-21 7-16 6-8 4-7 14-14 10-7 12-6-1-17v-17l2-20 2-15 10-16 11-13 8-10 14-10 17-9 16-5 13-1h18l20 2 8-16 3-9 6-10 4-7 10-13 6-7 8-7 7-6 17-9 16-4 17-3h26l20 2 5-8 6-16 8-14 8-12 10-13 7-7 9-7 10-7 9-4 16-4 10-1h52l4-9 8-16 14-22 8-11 13-13 12-8 12-6 20-6 21-2 8-1 19 2h11l6-9 7-14 15-24 6-9 15-15 16-10 14-6 16-4 11-1h14l26 3 5 1 3-9 4-7 10-13 10-11 15-11 12-7 14-5z" fill="#D85E46"/>
<path transform="translate(1151,540)" d="m0 0 7 1 43 15 30 13 21 11 19 12 18 14 13 12 8 8 9 11 12 17 9 16 7 16 6 19 5 23 2 18v25l-5 29-8 34-12 36-10 23-11 22-10 17-16 23-12 14-8 10-19 19-14 11-12 10-24 16-16 9-16 8-19 9-36 12-33 8-30 5-24 2-26 1h-262l-21-1-1-172 1-201 1-4h26l19 3 27 9 23 12 14 11 10 9 9 11 9 13 8 14 6 13 6 21 3 19 1 12v67h126l26-2 22-4 25-7 20-8 16-8 14-10 11-9 15-14 9-11 12-19 8-16 6-15 6-18 5-22 4-29 1-31-2-29-5-32-5-19-5-15-8-18-9-17-15-24-4-6z" fill="#010101"/>
<path transform="translate(738,518)" d="m0 0h315l1 1 1 150-1 223-1 1h-20l-24-3-20-6-18-8-14-8-14-11-16-16-11-15-9-16-8-21-4-16-2-14-1-20v-61l-136 1-21 2-27 5-21 7-20 9-17 10-12 9-10 9-10 10-11 14-10 16-10 19-7 18-7 25-5 28-1 12-1 27 1 24 3 25 5 24 7 23 8 19 12 22 17 26v2l-8-2-41-14-26-11-16-8-18-10-16-11-16-13-16-15-7-8-10-13-10-16-8-16-8-21-6-24-3-21v-25l4-28 6-27 10-33 10-26 14-29 12-20 13-19 10-13 10-11 7-8 18-18 11-9 15-12 17-11 20-12 16-8 25-11 24-8 28-7 26-5 17-2z" fill="#FEFEFE"/>
<path transform="translate(619,324)" d="m0 0h376l43 2 27 3 35 7 25 7 22 8 20 9 17 8 21 12 20 14 16 13 11 9 18 18 18 22 12 17 13 21 14 27 11 27 12 36 9 34 1 3v7l-5-3-38-38-14-11-17-12-18-11-20-11-27-12-23-9-25-8-29-8-39-8-33-5-39-4-27-2-23-1h-173l-36-1-27-3-25-5-24-8-18-8-20-11-16-11-16-13-20-20-13-17-12-19-12-23-8-18 1-3z" fill="#010101"/>
<path transform="translate(409,976)" d="m0 0 5 3 32 32 11 9 12 10 18 13 18 11 23 12 21 9 36 13 23 7 40 9 41 7 29 4 29 3 32 2h217l29 3 24 5 24 8 29 14 17 11 18 14 15 14 13 14 13 17 8 13 11 20 11 24v2l-3 1h-446l-24-1-27-3-31-6-32-8-32-12-24-11-24-14-21-14-15-13-8-7-6-5v-2l-4-2-4-4v-2l-4-2-7-8-12-14-13-18-13-21-14-27-8-19-10-28-6-20-8-31-3-8z" fill="#FEFEFE"/>
<path transform="translate(664,703)" d="m0 0 2 1-9 7h-2v2l-5 2-8 9-4 2-7 5-6 8-4 5h-2l-2 4h-2l-2 4-3 3v3h-2l-2 5-3 4-5 11h-2l-2 6-3 1-2 6-4 10-2 2-2 8-5 17-3 17v18l-1 1-1 18-1 3 1 9 1 28v30l5 13 4 2 3 7 4 10v6l3 1 2 9 4 9 3 10 5 11 4 9-2 5-4-5-10-17-10-22-8-24-5-23-3-20-1-10-1-25 1-26 2-18 5-26 6-21 9-22 10-19 11-16 12-14 14-14 18-13z" fill="#E36A55"/>
<path transform="translate(1054,519)" d="m0 0h1l1 18 1 78 1 54v66l1 36v64l-2 32-1 25h-3l1-225z" fill="#E46B56"/>
<path transform="translate(1134,1161)" d="m0 0 4 1 1 4 5 2 3 2v2l4 1 9 9 5 6 7 6 2 3v3h2l14 21 1 5 3 5-3 1 1 2-7-1-10-16-9-11-9-10-7-8-12-12-1-5-2-5-1-3-2-1z" fill="#E36A55"/>
<path transform="translate(425,986)" d="m0 0h3 2l2 2 9 3 1-3 5 3 1 3 3 1 5 6 5 5 2 4 2 1 2 4h-3l-1 2-4-3 3 4v2l2 1v2l-4 1-12-11-8-7-7-7-2-4-6-7z" fill="#E36A55"/>
<path transform="translate(443,968)" d="m0 0h2v2h2v2h2l7 8 2 1 2 5h2l5 5 9 8 5 1 3 6 2 1v2l4 2 9 7-1 2-4-1v-2h-2v-2h-2v-2h-2v-2l-3 1-1-2-7-3-2-1v-2h-2l-1 2-10-7-3-2v-2l-4-2-5-5-4-5v-2h-2v-3h-2l-1-8h2z" fill="#E36A55"/>
<path transform="translate(664,703)" d="m0 0 2 1-9 7h-2v2l-5 2-8 9-4 2-7 5-6 8-4 5h-2l-2 4h-2l-2 4-3 3v3h-2l-2 5-3 4-5 11h-2l-2 6-3 1-2 6-4 10-4 2 6-16 11-21 11-16 12-14 14-14 18-13z" fill="#E36A55"/>
<path transform="translate(1060,49)" d="m0 0 10 5 14 12 13 15 10 15 2 6-5-5v-2l-3-1-2-5-2-3-4-2 1-4h-2v-2h-2l-6-7-6-5-2-3-4-2v-3l-6-2-4-4-2-1z" fill="#E57460"/>
<path transform="translate(1517,328)" d="m0 0 7 4 12 11 9 10 10 15 1 3-4-1v-2h-3l1-4h-2v-3l-3-1-4-4-1-6h-2l-4-4v-2h-2v-2l-3 1v-2h-2l-1-2-2-2v-3l-4-1-3-3z" fill="#E77D6A"/>
<path transform="translate(1220,146)" d="m0 0 4 2 8 7 9 10 14 20 7 14h-2l-2-3v-3h-2l-2-7h-2v-2l-3-1 1-3h-2l-8-12v-2h-2l-6-7-2-1v-2h-2v-2l-3 1-1-5-4-1z" fill="#E67A67"/>
<path transform="translate(1366,236)" d="m0 0 6 3 11 8 5 4 9 11v3l-4-1-1-6h-2v-2h-2v-2h-3l-1-4-4-1-3-3-3-1-3-3-5-2z" fill="#E57461"/>
<path transform="translate(527,1052)" d="m0 0 7 1 1 3 5 1 1 2 6 2v4h-5l-9-5-1-2-7-3z" fill="#E36A55"/>
<path transform="translate(504,1042)" d="m0 0 5 1 10 5h4v2h2l1 3-8 1-1-3-7-1-3-2v-3h-2z" fill="#E46B56"/>
<path transform="translate(1670,421)" d="m0 0 8 6 9 9 11 14 2 4h-2l-4-5v-2l-4-2v-3h-2v-2h-2l-2-3-3-2-2-4-5-3v-2l-4-1z" fill="#E36A55"/>
<path transform="translate(1220,146)" d="m0 0 4 2 8 7 9 10-3 1-6-7-2-1v-2h-2v-2l-3 1-1-5-4-1z" fill="#E88372"/>
<path transform="translate(936,16)" d="m0 0 11 7 11 10 3 5-5-2v-2h-2v-2h-2v-2h-2l-5-5-2-1v-2l-5-2z" fill="#E7806E"/>
<path transform="translate(1145,1181)" d="m0 0h2v2l4 2v2l4 2v2h2v2h2v2h2l5 7h-3l-16-17z" fill="#DC624B"/>
<path transform="translate(1398,265)" d="m0 0 4 4 8 14 1 5-3-1v-3h-2l-2-8-3-1-3-7z" fill="#E5735F"/>
<path transform="translate(1745,530)" d="m0 0 5 3 11 8 4 4-1 3-4-4v-2l-6-2v-2l-4-2-5-4z" fill="#E57662"/>
<path transform="translate(485,1007)" d="m0 0 1 2 4 2 9 7-1 2-4-1v-2h-2v-2h-2v-2h-2v-2l-3 1-1-4z" fill="#E46B56"/>
<path transform="translate(1240,166)" d="m0 0 5 5 6 8-1 2-4-4-6-9z" fill="#E46F5B"/>
<path transform="translate(626,424)" d="m0 0 4 2 6 5v2l-5-2-5-5z" fill="#E06751"/>
<path transform="translate(1691,442)" d="m0 0 5 5 4 5v2h-2l-4-5v-2l-4-2z" fill="#E77B69"/>
</svg>
